<svg xmlns="http://www.w3.org/2000/svg" width="800" height="400" >
  <path fill="#2e3438" d="M299.83082 100.77073l-105.72466.5138c-19.7352 32.9014-39.47042 65.80276-59.20563 98.70414 19.8076 33.0923 39.7858 66.08876 59.48695 99.24076l105.44206-.0315c19.8284-33.10937 39.6622-66.22064 59.48722-99.32882-19.82736-33.0304-39.66502-66.0796-59.48594-99.0983z"/>

  <path fill="#ffcc00" d="M254.10328 294.42744c21.72807-36.27496 43.45614-72.5499 65.1842-108.82487l34.90657 14.27475-56.77122 94.7942c-14.43934-.0821-28.88274-.15854-43.31955-.24408zm-57.2973.27123l58.18087-95.70702 42.23723 1.07675c-19.17227 31.34935-38.00028 62.90724-56.9616 94.38415"/>

  <path fill="#d4aa00" d="M310.6662 200.10458l-56.74257-94.53054c14.49983-.0899 28.99966-.17985 43.4995-.26978l56.77148 94.5743c-14.5094.0753-29.0189.15068-43.5284.22602z"/>

  <path fill="#ffcc00" d="M140.0235 199.99158c18.8185-31.46692 37.63703-62.93384 56.45555-94.40076l43.43153-.0861-61.20953 102.76834c-12.89252-2.7605-25.78504-5.521-38.67756-8.28148z"/>

  <path fill="#d4aa00" d="M194.86313 291.34793l-54.83964-91.35635c14.5292-.003 29.0583-.005 43.5875-.008 19.047 31.39272 38.1795 62.7343 56.6585 94.46668-14.4916.0834-28.9831.1668-43.4746.25022-.6445-1.1166-1.2851-2.23976-1.9319-3.35255z"/>

  <path fill="#ffcc00" d="M275.59166 142.54744l-35.1741 57.3365c-14.46643.0628-28.93284.12557-43.39926.18835l56.90602-94.499 43.50687-.2691-21.8396 37.2432z"/>

  <path fill="#2e3438" d="M397.63388 212.29647l-2.9476 12.5483h-14.31686l17.60133-58.3623h16.75916l17.6014 58.3623h-14.6538l-2.9476-12.5483h-17.096zm8.5059-35.79218l-6.14782 25.7703h12.29566l-6.14783-25.7704zm77.02918 2.1896q5.30566 0 8.5059 3.6213 3.20024 3.5371 3.20024 9.8533v32.6761h-13.30626v-30.4023q0-5.9794-3.78976-5.9794-2.10543 0-3.70555 1.4317t-3.11602 4.3793v30.5707h-13.3062v-30.4023q0-5.9794-3.7897-5.9794-2.0212 0-3.7055 1.5159-1.6001 1.4317-3.116 4.2951v30.5707h-13.3063v-44.7191h11.622l.9264 5.22143q2.6107-3.36868 5.72675-4.9688 3.20026-1.68434 7.24267-1.68434 3.70553 0 6.4005 1.85277 2.7791 1.8527 4.1266 5.2214 2.69493-3.5371 5.8952-5.3057 3.28443-1.7686 7.4953-1.7686zm38.45784 0q10.27445 0 16.08542 6.3162 5.81096 6.232 5.81096 17.5171 0 7.1584-2.69494 12.5483-2.61072 5.3056-7.57952 8.2532-4.88458 2.9476-11.62193 2.9476-10.1903 0-16.0855-6.2321-5.811-6.3163-5.811-17.60136 0-7.15845 2.6107-12.4641 2.6949-5.3899 7.5795-8.3375 4.9688-2.9476 11.7061-2.9476zm0 9.7691q-4.04242 0-6.06362 3.4528-2.0212 3.3687-2.0212 10.5271 0 7.3269 1.93698 10.6955 2.0212 3.36866 6.14783 3.36866 4.0424 0 6.0636-3.36866 2.0212-3.4529 2.0212-10.61132 0-7.32688-2.0212-10.69555-1.937-3.36867-6.0636-3.36867zm27.17277 36.3817v-62.4889l13.30626-1.4317v63.9206h-13.30626zm42.02422 0h-14.9907l-13.3063-24.4229 13.6432-20.2962h13.5589L576.17 199.7481l14.65375 25.09663z" />

  <path  fill="#2e3438" d="M597.53186 211.0332q3.11603 0 5.30567 2.27387 2.27385 2.18964 2.27385 5.30566 0 3.20025-2.27385 5.4741-2.18964 2.18964-5.30567 2.18964-3.20024 0-5.4741-2.18964-2.18963-2.27385-2.18963-5.4741 0-3.11602 2.18963-5.30566 2.27386-2.27386 5.4741-2.27386z"/>

  <path d="M623.4414 219.79177q0 6.99-2.27387 11.5377-2.18964 4.54772-6.06362 7.24266-3.7897 2.77916-9.6007 4.88458l-4.4635-9.6849q3.2845-1.5159 5.1373-2.9476 1.8528-1.4317 2.8634-3.8739 1.0949-2.358 1.0949-6.3162v-40.5084h13.3063v39.6662zm-6.65315-63.24688q3.4529 0 5.64253 2.1896 2.27386 2.1054 2.27386 5.3899 0 3.2844-2.27386 5.4741-2.18964 2.1054-5.64253 2.1054-3.4529 0-5.64253-2.1054-2.18964-2.1897-2.18964-5.4741t2.18964-5.3899q2.18964-2.1897 5.64253-2.1897zm30.2046 22.149q4.80035 0 9.0112 1.4317 4.21084 1.4317 7.4111 4.0424l-4.8846 7.5795q-5.38988-3.5371-10.6113-3.5371-2.9476 0-4.3793.9264-1.4317.8421-1.4317 2.4423 0 1.2632.58953 2.1054.67373.7579 2.61072 1.6001 1.937.8421 5.9794 2.0212 6.99 2.0212 10.35868 5.3056 3.4529 3.2002 3.4529 8.927 0 4.5477-2.61073 7.9164-2.61073 3.2844-7.15844 5.053-4.5477 1.7685-10.106 1.7685-5.6425 0-10.5271-1.7686-4.8003-1.76857-8.169-4.8846l6.5689-7.32686q2.5265 2.10542 5.5584 3.28446 3.0318 1.1791 6.1479 1.1791t4.8004-1.09483q1.76855-1.0948 1.76855-3.0318 0-1.6001-.67374-2.5265-.67375-1.0106-2.61074-1.76854-1.937-.84214-6.1478-2.0212-6.6531-1.937-9.9376-5.38986-3.28443-3.4529-3.28443-8.59015 0-3.874 2.18963-6.9058 2.27384-3.116 6.40047-4.88458 4.2109-1.85277 9.685-1.85277z" fill="#2e3438"/>
</svg>